<svg height="1024" width="1024" xmlns="http://www.w3.org/2000/svg">
    <path class="st0" fill="#00adb5" d="M224,324.4v599.2c0,20.1,16.3,36.4,36.4,36.4h599.2c20.1,0,36.4-16.3,36.4-36.4V324.4
		c0-20.1-16.3-36.4-36.4-36.4H260.4C240.3,288,224,304.3,224,324.4z"/>
	<path class="st0" fill="#00adb5" d="M113.6,661.3H99.7c-13.8,0-25-11.2-25-25V175.1c0-20.1,16.3-36.4,36.4-36.4h461.3c13.8,0,25,11.2,25,25v13.9
		c0,20.1,16.3,36.4,36.4,36.4h1.9c20.1,0,36.4-16.3,36.4-36.4v-77.2c0-20.1-16.3-36.4-36.4-36.4H36.4C16.3,64,0,80.3,0,100.4v599.2
		C0,719.7,16.3,736,36.4,736h77.2c20.1,0,36.4-16.3,36.4-36.4v-1.9C150,677.6,133.7,661.3,113.6,661.3z"/>
</svg>
