<svg version="1" xmlns="http://www.w3.org/2000/svg" width="693.333" height="693.333" viewBox="0 0 520.000000 520.000000"><path d="M251.5 45c-16.2 9.4-85.3 49.5-109.5 63.5-6.9 4-25.1 14.5-40.5 23.5-15.4 8.9-29.3 17-31 18-1.6.9-7.5 4.3-13 7.5-12.9 7.5-27 15.6-36.7 21.2-4.3 2.4-8.1 5.2-8.6 6.1-.6 1.3-.8 44.2-.3 54.4.1 1.5 3.9 4 14.4 9.5 3.2 1.7 3.3 2.3.9 4.9-.9 1.1-4.4 5.1-7.7 8.9-3.3 3.9-6.2 7.2-6.5 7.5-.3.3-3.3 3.7-6.8 7.6L0 284.8v30.3l.1 30.4L13.6 361c7.5 8.5 16.1 18.4 19.2 22 3.1 3.5 7.3 8.2 9.2 10.5 1.9 2.2 3.7 4.2 4 4.5.3.3 3.2 3.6 6.5 7.5 3.3 3.8 6.7 7.7 7.5 8.5.8.8 3.6 4 6.2 7s5.9 6.8 7.3 8.5c3.2 3.7 3.7 4.2 20.5 23.5 18.4 21.2 19.2 22.1 21.5 24.5l2.1 2.2H403l4.3-5c2.3-2.8 4.7-5.5 5.2-6.1.6-.6 6.6-7.6 13.5-15.6s13.2-15.2 14-16c.9-.8 2.8-3.1 4.4-5 1.6-1.9 5.5-6.4 8.6-10 3.2-3.6 7.9-9 10.5-12 2.6-3 6.2-7.1 7.9-9 1.8-1.9 10.6-12 19.7-22.4 9-10.4 19.2-22.1 22.6-26l6.3-7.1V315l-.1-30.5-3.7-4.1c-2-2.3-4.8-5.4-6.2-7-1.4-1.6-6.2-7.1-10.8-12.3-4.5-5.1-8.2-9.7-8.2-10.1 0-.4 1-1.2 2.3-1.8 4.3-2.2 13.2-7.4 14.2-8.3 1-1 1.5-55.3.5-56.8-.3-.4-14-8.5-30.5-18.1-35.4-20.5-39.4-22.7-42-24.1-1.1-.6-6.3-6-11.5-12.1-14.2-16.4-16.3-18.8-31.9-36.7-23.1-26.6-25.4-29.3-28.4-32.5-1.6-1.7-4-4.5-5.4-6.3-1.6-2.1-3-3-4.1-2.6-.9.4-8.3 4.6-16.5 9.5-22.6 13.4-19.6 12.5-27.5 7.9-3.7-2.1-8.3-4.8-10.2-5.9-1.9-1-11.2-6.4-20.6-11.9-9.4-5.5-17.7-10.2-18.5-10.4-.8-.3-5 1.6-9.4 4.1z"/></svg>